<?xml version="1.0" encoding="utf-8"?>
<!-- Generator: Adobe Illustrator 16.0.0, SVG Export Plug-In . SVG Version: 6.00 Build 0)  -->
<!DOCTYPE svg PUBLIC "-//W3C//DTD SVG 1.1//EN" "http://www.w3.org/Graphics/SVG/1.1/DTD/svg11.dtd">
<svg version="1.1" id="Layer_1" xmlns="http://www.w3.org/2000/svg" xmlns:xlink="http://www.w3.org/1999/xlink" x="0px" y="0px"
	 width="512px" height="512px" viewBox="0 0 512 512" enable-background="new 0 0 512 512" xml:space="preserve">
<g id="instagram">
	<path fill="#4D75A3" d="M254.293,14.85c-131.996,0-239,107.004-239,239c0,131.996,107.004,239,239,239
		c131.997,0,239-107.004,239-239C493.294,121.854,386.29,14.85,254.293,14.85z M412.686,412.241
		c-42.308,42.309-98.559,65.607-158.392,65.607s-116.084-23.3-158.392-65.607c-42.308-42.308-65.608-98.558-65.608-158.392
		c0-59.833,23.3-116.083,65.608-158.392C138.21,53.148,194.46,29.85,254.293,29.85s116.084,23.3,158.392,65.608
		c42.31,42.308,65.608,98.559,65.608,158.392C478.294,313.684,454.994,369.934,412.686,412.241z"/>
</g>
<path fill="#4D75A3" d="M251.247,340.177h16.974c0,0,5.125-0.565,7.746-3.386c2.409-2.592,2.332-7.457,2.332-7.457
	s-0.332-22.775,10.237-26.129c10.423-3.307,23.804,22.012,37.986,31.748c10.725,7.365,18.875,5.753,18.875,5.753l37.925-0.529
	c0,0,19.838-1.225,10.431-16.823c-0.77-1.272-5.479-11.537-28.199-32.625c-23.78-22.071-20.594-18.502,8.053-56.68
	c17.443-23.251,24.418-37.445,22.237-43.525c-2.076-5.792-14.907-4.262-14.907-4.262l-42.699,0.265c0,0-3.168-0.432-5.516,0.973
	c-2.295,1.373-3.768,4.581-3.768,4.581s-6.761,17.991-15.771,33.294c-19.014,32.286-26.616,33.995-29.726,31.987
	c-7.23-4.673-5.424-18.77-5.424-28.786c0-31.29,4.746-44.336-9.242-47.712c-4.641-1.121-8.061-1.862-19.93-1.982
	c-15.237-0.156-28.13,0.046-35.432,3.623c-4.858,2.38-8.606,7.679-6.322,7.985c2.823,0.376,9.213,1.725,12.601,6.335
	c4.377,5.955,4.223,19.323,4.223,19.323s2.515,36.833-5.872,41.407c-5.755,3.139-13.651-3.269-30.603-32.561
	c-8.684-15.003-15.242-31.591-15.242-31.591s-1.263-3.099-3.52-4.758c-2.736-2.01-6.559-2.647-6.559-2.647l-40.578,0.265
	c0,0-6.09,0.17-8.328,2.819c-1.991,2.358-0.159,7.229-0.159,7.229s31.766,74.323,67.737,111.776
	C213.795,342.432,251.247,340.177,251.247,340.177L251.247,340.177z"/>
</svg>
